<svg width="30" height="30" viewBox="0 0 30 30" fill="none" xmlns="http://www.w3.org/2000/svg">
<path d="M19.0273 8H23.0714C23.508 8 23.8623 8.35433 23.8623 8.79091C23.8623 9.22749 23.508 9.58182 23.0714 9.58182H19.0273C18.5907 9.58182 18.2364 9.22749 18.2364 8.79091C18.2364 8.35433 18.5907 8 19.0273 8ZM5.45515 8.60863H9.86076C12.4613 8.60863 14.013 9.88086 14.013 11.9515C14.013 13.3719 12.9624 14.6114 11.5878 14.8154V14.9822C13.3626 15.112 14.6526 16.4494 14.6526 18.1768C14.6541 20.5258 12.8798 22.0139 10.0183 22.0139H5.45515C4.65159 22.0139 4 21.3623 4 20.5588V10.0638C4 9.26022 4.65159 8.60863 5.45515 8.60863ZM6.80526 10.7527V14.1635H8.91229C10.4277 14.1651 11.2541 13.5415 11.2541 12.4643C11.2541 11.3966 10.4853 10.7527 9.14709 10.7527H6.80526ZM21.3413 11.5436C24.361 11.5436 26.1424 13.4679 26.1424 16.7185V17.5434H19.1138V17.6825C19.1502 19.2057 20.043 20.154 21.4556 20.154C22.5233 20.154 23.2562 19.7745 23.5441 19.0974H26.062C25.6539 21.0304 23.8871 22.2364 21.3784 22.2364C18.2574 22.2364 16.4197 20.266 16.4197 16.941C16.4197 13.6065 18.2947 11.5436 21.3413 11.5436ZM21.3537 13.6167C20.0993 13.6167 19.2148 14.4877 19.123 15.8164H23.4885C23.4315 14.4608 22.6159 13.6167 21.3537 13.6167ZM6.80526 16.0605V19.8698H9.30465C10.9213 19.8698 11.7948 19.1886 11.7948 17.9358C11.7948 16.7083 10.8928 16.0605 9.23977 16.0605H6.80526Z" fill="#FF6237"/>
</svg>
