<svg width="30" height="30" viewBox="0 0 30 30" fill="none" xmlns="http://www.w3.org/2000/svg">
<path fill-rule="evenodd" clip-rule="evenodd" d="M14.8 4C8.83391 4 4 8.83742 4 14.798C4 20.4641 8.37127 25.1148 13.924 25.561V25.6H14.8C20.7661 25.6 25.6 20.7626 25.6 14.802C25.6 8.84177 20.7665 4 14.8 4ZM17.1864 23.5302C16.5089 23.715 15.7996 23.823 15.0686 23.8443H14.8C13.581 23.8443 12.418 23.6029 11.3564 23.1652C12.3843 19.4615 15.1709 16.8086 18.3603 15.6231C18.9107 18.2907 18.5112 21.1493 17.1864 23.5302ZM17.8747 13.936C14.2344 15.2472 11.0552 18.2005 9.77778 22.3224C7.35105 20.6993 5.75207 17.9342 5.75207 14.798C5.75207 13.6859 5.95295 12.6205 6.32043 11.6361C7.41579 12.1818 8.58704 12.5679 9.79153 12.7826C11.3259 13.0639 12.8979 13.0546 14.4278 12.7787C15.2986 12.6215 16.1488 12.3711 16.9639 12.0374C17.3268 12.6406 17.6319 13.2762 17.8747 13.936ZM20.0491 15.141C20.5751 17.5691 20.4156 20.1421 19.5761 22.4863C22.0668 20.9353 23.7484 18.2075 23.8437 15.0825C22.6055 14.858 21.3148 14.8854 20.0491 15.141ZM23.7219 13.289C22.3507 13.0965 20.9406 13.159 19.5632 13.4533C19.2919 12.6922 18.9495 11.9591 18.5416 11.2629C19.6732 10.6093 20.7067 9.78671 21.5951 8.82751C22.6816 10.0629 23.4368 11.5966 23.7219 13.289ZM10.1011 11.0584C9.05472 10.8721 8.03839 10.5363 7.08994 10.0623C7.90565 8.73771 9.05325 7.63906 10.417 6.88245L10.4275 6.88576L10.4279 6.88588L10.4279 6.8859L10.4279 6.88591C10.5765 6.93266 10.7183 6.9773 10.8549 7.02632C10.9053 7.04556 10.9547 7.06427 11.0029 7.08255L11.0036 7.08284L11.0037 7.08286L11.0037 7.08287C11.2252 7.16684 11.4229 7.24182 11.5881 7.31841L11.6353 7.34198L11.6465 7.3472C11.7508 7.39572 11.9012 7.46737 12.0366 7.53197C12.1086 7.56633 12.1765 7.59866 12.231 7.62445L12.233 7.62556C12.2786 7.65003 12.3168 7.67058 12.3525 7.69185C12.3815 7.71068 12.4075 7.72593 12.4214 7.73407C12.4468 7.74895 12.4729 7.76367 12.4944 7.77565C12.5128 7.78587 12.5309 7.79583 12.5444 7.80325L12.5512 7.807L12.5656 7.81497L12.5675 7.81601C12.5875 7.82759 12.6119 7.84149 12.6397 7.85736C12.6993 7.89134 12.7746 7.93431 12.8572 7.9827C12.9155 8.01686 12.9701 8.04943 13.0146 8.077C13.0476 8.09754 13.0656 8.10946 13.0724 8.11399L13.0728 8.11426C13.0756 8.11613 13.0763 8.11656 13.0752 8.1157L13.1136 8.1448L13.1562 8.17015C13.2213 8.20877 13.2854 8.25313 13.3654 8.30849L13.3655 8.30851L13.3655 8.30853L13.3658 8.30876C13.4023 8.33404 13.4422 8.36161 13.4869 8.39199L13.5174 8.41261L13.5432 8.42719C13.5432 8.42722 13.5436 8.42753 13.5446 8.42817C13.5452 8.42857 13.546 8.42911 13.547 8.42979C13.5539 8.43447 13.5708 8.44585 13.6002 8.46691C13.6455 8.49931 13.7001 8.53998 13.7603 8.58521L13.8315 8.63887C13.8681 8.66651 13.9052 8.69452 13.9368 8.71815C13.9785 8.74937 14.0295 8.78727 14.0756 8.8192C14.7479 9.33336 15.3624 9.92045 15.9095 10.5676C15.3274 10.7805 14.7275 10.9445 14.1167 11.0548C12.7851 11.2949 11.425 11.3013 10.1057 11.0592L10.1034 11.0588L10.1011 11.0584ZM14.8 5.75176C16.8768 5.75176 18.79 6.4522 20.3169 7.62932C19.5163 8.49546 18.5788 9.2331 17.5523 9.81037C16.8466 8.91335 16.0301 8.10574 15.1198 7.41229L15.0978 7.39555L15.075 7.38033L15.0687 7.37601C15.0639 7.37258 15.0574 7.36795 15.0491 7.36191C15.0323 7.3497 15.0115 7.33429 14.9865 7.31558C14.9582 7.29439 14.9298 7.27295 14.8992 7.24992L14.8992 7.24987L14.8929 7.24515C14.8682 7.22646 14.842 7.20669 14.8133 7.18514C14.7513 7.13849 14.6832 7.08776 14.6207 7.04297C14.577 7.01167 14.5143 6.9674 14.4501 6.92835L14.4095 6.90022L14.4092 6.90006L14.4092 6.90005C14.3258 6.84229 14.2007 6.75563 14.0869 6.68573C13.9805 6.61118 13.8368 6.52626 13.7427 6.47112C13.6515 6.41773 13.5533 6.3617 13.4924 6.32692L13.4919 6.32665L13.4457 6.30025C13.4345 6.29369 13.4248 6.28825 13.4207 6.28601L13.4207 6.286L13.4205 6.28588L13.42 6.28558L13.3963 6.27249L13.3883 6.26808C13.3747 6.2606 13.3611 6.25311 13.347 6.24523C13.3308 6.23623 13.3177 6.22879 13.3081 6.22323L13.3015 6.21862L13.2783 6.20442C13.1941 6.15301 13.1065 6.10605 13.0589 6.08057L13.0579 6.08002L13.0413 6.07114L13.0209 6.06019L13 6.05032C12.9582 6.03058 12.8964 6.00114 12.8262 5.96769C13.4616 5.82632 14.1221 5.75176 14.8 5.75176Z" fill="#FF6237"/>
</svg>
