<svg width="30" height="30" viewBox="0 0 30 30" fill="none" xmlns="http://www.w3.org/2000/svg">
<path d="M9.28308 24.0449H5.28615V11.3489H9.28308V24.0449ZM7.28185 9.5895C6.82846 9.58695 6.386 9.45015 6.01029 9.19637C5.63458 8.94259 5.34247 8.5832 5.17082 8.16356C4.99917 7.74392 4.95567 7.28284 5.04582 6.8385C5.13597 6.39416 5.35572 5.98649 5.67734 5.66692C5.99896 5.34736 6.40804 5.13023 6.85295 5.04294C7.29785 4.95564 7.75865 5.0021 8.17718 5.17644C8.59571 5.35078 8.95321 5.6452 9.20458 6.02253C9.45594 6.39986 9.5899 6.84319 9.58954 7.29658C9.59382 7.60012 9.53694 7.90142 9.42229 8.18252C9.30764 8.46361 9.13758 8.71875 8.92223 8.93271C8.70688 9.14668 8.45066 9.31511 8.16884 9.42795C7.88702 9.54079 7.58536 9.59573 7.28185 9.5895ZM24.0154 24.056H20.0203V17.12C20.0203 15.0744 19.1508 14.443 18.0283 14.443C16.8431 14.443 15.68 15.3366 15.68 17.1717V24.056H11.6831V11.3581H15.5268V13.1175H15.5785C15.9643 12.3366 17.3157 11.0018 19.3778 11.0018C21.608 11.0018 24.0172 12.3255 24.0172 16.2024L24.0154 24.056Z" fill="#FF6237"/>
</svg>
