<svg width="22" height="22" viewBox="0 0 22 22" fill="none" xmlns="http://www.w3.org/2000/svg">
<path fill-rule="evenodd" clip-rule="evenodd" d="M11.2004 0.400391C5.2343 0.400391 0.400391 5.23781 0.400391 11.1984C0.400391 16.8644 4.77166 21.5152 10.3243 21.9614V22.0004H11.2004C17.1665 22.0004 22.0004 17.163 22.0004 11.2023C22.0004 5.24216 17.1669 0.400391 11.2004 0.400391ZM13.5868 19.9306C12.9093 20.1154 12.2 20.2234 11.469 20.2447H11.2004C9.98139 20.2447 8.81843 20.0033 7.75677 19.5656C8.78469 15.8619 11.5712 13.209 14.7607 12.0235C15.3111 14.6911 14.9116 17.5497 13.5868 19.9306ZM14.2751 10.3364C10.6348 11.6475 7.45561 14.6009 6.17818 18.7228C3.75144 17.0997 2.15246 14.3346 2.15246 11.1984C2.15246 10.0863 2.35334 9.02087 2.72082 8.03646C3.81618 8.58223 4.98743 8.9683 6.19192 9.18298C7.72626 9.46429 9.2983 9.45494 10.8282 9.1791C11.699 9.02188 12.5492 8.77147 13.3643 8.43779C13.7271 9.04095 14.0323 9.67655 14.2751 10.3364ZM16.4495 11.5414C16.9755 13.9694 16.816 16.5425 15.9765 18.8867C18.4672 17.3357 20.1488 14.6079 20.2441 11.4829C19.0059 11.2584 17.7152 11.2858 16.4495 11.5414ZM20.1223 9.68943C18.7511 9.49685 17.341 9.55944 15.9636 9.85367C15.6923 9.09261 15.3499 8.35947 14.942 7.66331C16.0736 7.00972 17.1071 6.1871 17.9955 5.2279C19.082 6.46328 19.8372 7.99696 20.1223 9.68943ZM6.50147 7.45876C5.45511 7.27248 4.43878 6.93665 3.49033 6.46265C4.30604 5.1381 5.45364 4.03945 6.81735 3.28284L6.82787 3.28615L6.82826 3.28628L6.82831 3.28629L6.82833 3.2863C6.9769 3.33305 7.11873 3.37769 7.25531 3.42671C7.3057 3.44595 7.35504 3.46466 7.40327 3.48294L7.40403 3.48323L7.40407 3.48325L7.4041 3.48326C7.62557 3.56723 7.82333 3.64221 7.98853 3.7188L8.03568 3.74237L8.04692 3.74759C8.15124 3.79611 8.30156 3.86777 8.43703 3.93236C8.50902 3.96672 8.57686 3.99905 8.63137 4.02484L8.63339 4.02595C8.67895 4.05042 8.71723 4.07097 8.7529 4.09224C8.78193 4.11107 8.80785 4.12632 8.82175 4.13446C8.84716 4.14934 8.87329 4.16406 8.89482 4.17604C8.91321 4.18626 8.93127 4.19622 8.9448 4.20365L8.95162 4.20739L8.96603 4.21536L8.96785 4.2164C8.98794 4.22798 9.0123 4.24188 9.04008 4.25775C9.09965 4.29173 9.17494 4.3347 9.25763 4.38309C9.31592 4.41725 9.37046 4.44982 9.41494 4.47739C9.44802 4.49793 9.46599 4.50985 9.47282 4.51438L9.47323 4.51465C9.47602 4.51652 9.47668 4.51695 9.47555 4.51609L9.51396 4.54519L9.55662 4.57054C9.62169 4.60916 9.68581 4.65352 9.76582 4.70888L9.76584 4.7089L9.76587 4.70892L9.76621 4.70915C9.80273 4.73443 9.84259 4.76201 9.88734 4.79238L9.91775 4.813L9.9436 4.82758C9.94358 4.82761 9.94403 4.82792 9.94496 4.82856C9.94556 4.82896 9.94635 4.8295 9.94736 4.83018C9.95431 4.83486 9.97119 4.84624 10.0006 4.86731C10.0459 4.89971 10.1005 4.94037 10.1606 4.9856L10.2319 5.03926C10.2685 5.0669 10.3056 5.09492 10.3372 5.11854C10.3789 5.14976 10.4299 5.18766 10.476 5.21959C11.1483 5.73375 11.7628 6.32084 12.3099 6.96796C11.7278 7.18093 11.1279 7.3449 10.517 7.45519C9.18548 7.69525 7.82539 7.70173 6.50606 7.45961L6.50377 7.45917L6.50147 7.45876ZM11.2004 2.15215C13.2771 2.15215 15.1904 2.85259 16.7173 4.02971C15.9167 4.89585 14.9792 5.63349 13.9527 6.21076C13.247 5.31374 12.4305 4.50613 11.5202 3.81269L11.4982 3.79595L11.4753 3.78072L11.4691 3.7764C11.4643 3.77297 11.4578 3.76834 11.4495 3.7623C11.4327 3.75009 11.4119 3.73468 11.3869 3.71597C11.3586 3.69478 11.3301 3.67334 11.2996 3.65031L11.2996 3.65026L11.2933 3.64554C11.2686 3.62685 11.2424 3.60708 11.2137 3.58553C11.1516 3.53889 11.0836 3.48815 11.0211 3.44336C10.9774 3.41206 10.9147 3.36779 10.8505 3.32874L10.8099 3.30061L10.8096 3.30045L10.8096 3.30044C10.7262 3.24268 10.6011 3.15602 10.4873 3.08612C10.3809 3.01157 10.2372 2.92665 10.1431 2.87151C10.0519 2.81812 9.95373 2.7621 9.89277 2.72731L9.8923 2.72704L9.84613 2.70064C9.83491 2.69409 9.82515 2.68864 9.82111 2.6864L9.8211 2.68639L9.82089 2.68627L9.82035 2.68597L9.79669 2.67288L9.78869 2.66847C9.77509 2.66099 9.76149 2.6535 9.74734 2.64562C9.73114 2.63662 9.71805 2.62918 9.7085 2.62362L9.70192 2.61902L9.67866 2.60481C9.59452 2.5534 9.50685 2.50644 9.45926 2.48096L9.45824 2.48041L9.44167 2.47153L9.42132 2.46058L9.40043 2.45071C9.35862 2.43097 9.29681 2.40153 9.22664 2.36808C9.86195 2.22671 10.5224 2.15215 11.2004 2.15215Z" fill="#FF6237"/>
</svg>
