<svg width="23" height="15" viewBox="0 0 23 15" fill="none" xmlns="http://www.w3.org/2000/svg">
<path d="M15.0273 0H19.0714C19.508 0 19.8623 0.354327 19.8623 0.790909C19.8623 1.22749 19.508 1.58182 19.0714 1.58182H15.0273C14.5907 1.58182 14.2364 1.22749 14.2364 0.790909C14.2364 0.354327 14.5907 0 15.0273 0ZM1.45515 0.60863H5.86076C8.46127 0.60863 10.013 1.88086 10.013 3.95146C10.013 5.37193 8.96238 6.61136 7.58778 6.81541V6.98224C9.36258 7.11195 10.6526 8.44943 10.6526 10.1768C10.6541 12.5258 8.87983 14.0139 6.01832 14.0139H1.45515C0.651586 14.0139 0 13.3623 0 12.5588V2.06378C0 1.26022 0.651586 0.60863 1.45515 0.60863ZM2.80526 2.75273V6.16353H4.91229C6.42767 6.16511 7.25412 5.54153 7.25412 4.46431C7.25412 3.39658 6.48531 2.75273 5.14709 2.75273H2.80526ZM17.3413 3.54364C20.361 3.54364 22.1424 5.4679 22.1424 8.71854V9.54343H15.1138V9.68246C15.1502 11.2057 16.043 12.154 17.4556 12.154C18.5233 12.154 19.2562 11.7745 19.5441 11.0974H22.062C21.6539 13.0304 19.8871 14.2364 17.3784 14.2364C14.2574 14.2364 12.4197 12.266 12.4197 8.94098C12.4197 5.60651 14.2947 3.54364 17.3413 3.54364ZM17.3537 5.61669C16.0993 5.61669 15.2148 6.48768 15.123 7.81641H19.4885C19.4315 6.46079 18.6159 5.61669 17.3537 5.61669ZM2.80526 8.06048V11.8698H5.30465C6.92127 11.8698 7.79478 11.1886 7.79478 9.93579C7.79478 8.7083 6.89277 8.06048 5.23977 8.06048H2.80526Z" fill="#FF6237"/>
</svg>
