<svg width="20" height="20" viewBox="0 0 20 20" fill="none" xmlns="http://www.w3.org/2000/svg">
<path d="M4.28308 19.0449H0.286155V6.34889H4.28308V19.0449ZM2.28185 4.5895C1.82846 4.58695 1.386 4.45015 1.01029 4.19637C0.634582 3.94259 0.342469 3.5832 0.170818 3.16356C-0.000832975 2.74392 -0.044329 2.28284 0.045819 1.8385C0.135967 1.39416 0.355719 0.986486 0.677341 0.666922C0.998963 0.347358 1.40804 0.130229 1.85295 0.0429358C2.29785 -0.0443574 2.75865 0.0020985 3.17718 0.17644C3.59571 0.350782 3.95321 0.645195 4.20458 1.02253C4.45594 1.39986 4.5899 1.84319 4.58954 2.29658C4.59382 2.60012 4.53694 2.90142 4.42229 3.18252C4.30764 3.46361 4.13758 3.71875 3.92223 3.93271C3.70688 4.14668 3.45066 4.31511 3.16884 4.42795C2.88702 4.54079 2.58536 4.59573 2.28185 4.5895ZM19.0154 19.056H15.0203V12.12C15.0203 10.0744 14.1508 9.44304 13.0283 9.44304C11.8431 9.44304 10.68 10.3366 10.68 12.1717V19.056H6.68308V6.35812H10.5268V8.1175H10.5785C10.9643 7.33658 12.3157 6.00181 14.3778 6.00181C16.608 6.00181 19.0172 7.3255 19.0172 11.2024L19.0154 19.056Z" fill="#FF6237"/>
</svg>
