<svg width="30" height="30" viewBox="0 0 30 30" fill="none" xmlns="http://www.w3.org/2000/svg">
<path d="M3.99998 25.7846L5.53126 20.1905C4.58635 18.553 4.08985 16.6968 4.09075 14.7934C4.09348 8.84254 8.93602 4 14.8859 4C17.7733 4.00091 20.4837 5.12554 22.5224 7.16603C24.5601 9.20652 25.682 11.9187 25.6811 14.8034C25.6784 20.7551 20.8359 25.5976 14.8859 25.5976C13.0796 25.5967 11.2996 25.1438 9.72298 24.2833L3.99998 25.7846ZM9.98803 22.329C11.5093 23.2322 12.9616 23.7732 14.8823 23.7741C19.8274 23.7741 23.8558 19.7494 23.8585 14.8015C23.8603 9.84372 19.851 5.82446 14.8896 5.82265C9.94083 5.82265 5.91522 9.84735 5.9134 14.7943C5.91249 16.8139 6.50431 18.3261 7.49823 19.9082L6.59145 23.2195L9.98803 22.329ZM20.3239 17.3694C20.2568 17.2568 20.077 17.1897 19.8065 17.0544C19.537 16.9192 18.2108 16.2666 17.963 16.1767C17.7161 16.0868 17.5364 16.0414 17.3558 16.3119C17.176 16.5815 16.6587 17.1897 16.5016 17.3694C16.3446 17.5491 16.1867 17.5718 15.9171 17.4366C15.6475 17.3013 14.7779 17.0172 13.7477 16.0977C12.9462 15.3825 12.4043 14.4993 12.2473 14.2288C12.0902 13.9592 12.2309 13.8131 12.3653 13.6787C12.4869 13.558 12.6349 13.3638 12.7701 13.2058C12.9072 13.0497 12.9516 12.9371 13.0424 12.7565C13.1323 12.5768 13.0878 12.4188 13.0197 12.2836C12.9516 12.1493 12.4125 10.8213 12.1883 10.2812C11.9686 9.75568 11.7462 9.82648 11.581 9.81831L11.0636 9.80923C10.8839 9.80923 10.5916 9.8764 10.3448 10.1469C10.0979 10.4174 9.40075 11.0691 9.40075 12.3971C9.40075 13.725 10.3674 15.0076 10.5018 15.1873C10.637 15.367 12.4034 18.0919 15.1092 19.2601C15.7528 19.5379 16.2556 19.704 16.6469 19.8283C17.2931 20.0335 17.8813 20.0044 18.3461 19.9354C18.8644 19.8583 19.9418 19.2828 20.1669 18.6529C20.392 18.022 20.392 17.482 20.3239 17.3694Z" fill="#FF6237"/>
</svg>
